<svg xmlns="http://www.w3.org/2000/svg" viewBox="0 0 8 8" fill="none">
<path d="M7.74143 2.92048L5.34319 2.5555L4.27111 0.279522C4.24183 0.217207 4.19365 0.166762 4.13415 0.136099C3.98491 0.0589477 3.80355 0.123241 3.72893 0.279522L2.65685 2.5555L0.258607 2.92048C0.192487 2.93037 0.132035 2.96301 0.0857515 3.01247C0.0297973 3.07269 -0.0010361 3.15372 2.65856e-05 3.23774C0.00108927 3.32175 0.033961 3.40189 0.0914189 3.46054L1.82658 5.23206L1.41664 7.73356C1.40703 7.79175 1.41318 7.8516 1.43439 7.90631C1.4556 7.96103 1.49104 8.00843 1.53666 8.04313C1.58229 8.07783 1.6363 8.09845 1.69255 8.10265C1.7488 8.10685 1.80505 8.09447 1.85492 8.06689L4.00002 6.88588L6.14512 8.06689C6.20368 8.09953 6.27169 8.11041 6.33687 8.09854C6.50122 8.06887 6.61173 7.90567 6.5834 7.73356L6.17346 5.23206L7.90862 3.46054C7.95585 3.41208 7.98702 3.34877 7.99646 3.27953C8.02197 3.10644 7.90673 2.9462 7.74143 2.92048Z" fill="#A4A5A6" />
</svg>
