<svg xmlns="http://www.w3.org/2000/svg" viewBox="0 0 8 8" fill="none">
<path d="M3.33333 1.42838C3.33341 1.75774 3.20074 2.077 2.95777 2.33214C2.7148 2.58727 2.37646 2.76262 2 2.82849V4H5C5.26522 4 5.51957 3.90969 5.70711 3.74893C5.89464 3.58817 6 3.37014 6 3.1428V2.82849C5.59532 2.75768 5.23572 2.56059 4.99093 2.27542C4.74614 1.99026 4.63359 1.63734 4.67511 1.28508C4.71662 0.932827 4.90924 0.606332 5.21561 0.368897C5.52199 0.131462 5.92031 7.9366e-07 6.33333 7.9366e-07C6.74636 7.9366e-07 7.14467 0.131462 7.45105 0.368897C7.75743 0.606332 7.95004 0.932827 7.99156 1.28508C8.03307 1.63734 7.92052 1.99026 7.67573 2.27542C7.43094 2.56059 7.07135 2.75768 6.66666 2.82849V3.1428C6.66666 3.33041 6.62356 3.51619 6.5398 3.68953C6.45604 3.86286 6.33327 4.02036 6.17851 4.15302C6.02375 4.28569 5.84001 4.39092 5.6378 4.46272C5.4356 4.53452 5.21887 4.57147 5 4.57147H2V5.17151C2.40468 5.24232 2.76428 5.43942 3.00907 5.72458C3.25386 6.00974 3.36641 6.36266 3.32489 6.71492C3.28338 7.06717 3.09076 7.39367 2.78439 7.6311C2.47801 7.86854 2.07969 8 1.66667 8C1.25364 8 0.855331 7.86854 0.548952 7.6311C0.242574 7.39367 0.0499562 7.06717 0.00844349 6.71492C-0.0330693 6.36266 0.07948 6.00974 0.324271 5.72458C0.569062 5.43942 0.928655 5.24232 1.33334 5.17151V2.82849C1.02436 2.77442 0.739624 2.64633 0.512188 2.45909C0.284751 2.27184 0.123951 2.03313 0.0484623 1.77068C-0.0270258 1.50822 -0.014104 1.2328 0.0857273 0.976386C0.185559 0.719976 0.368202 0.493104 0.612446 0.322121C0.856689 0.151138 1.15251 0.0430608 1.46555 0.0104412C1.77859 -0.0221785 2.096 0.0219985 2.38092 0.137841C2.66583 0.253684 2.90657 0.436438 3.07516 0.664879C3.24374 0.893319 3.33327 1.15807 3.33333 1.42838V1.42838Z" fill="#A4A5A6" />
</svg>
