<svg xmlns="http://www.w3.org/2000/svg" viewBox="0 0 115 130" fill="none">
<defs>
<filter id="filter0_d_25_33" x="3.04663" y="19.8742" width="107.951" height="105.796" filterUnits="userSpaceOnUse" color-interpolation-filters="sRGB">
<feFlood flood-opacity="0" result="BackgroundImageFix"/>
<feColorMatrix in="SourceAlpha" type="matrix" values="0 0 0 0 0 0 0 0 0 0 0 0 0 0 0 0 0 0 127 0" result="hardAlpha"/>
<feOffset dy="4"/>
<feGaussianBlur stdDeviation="6.5"/>
<feColorMatrix type="matrix" values="0 0 0 0 0 0 0 0 0 0 0 0 0 0 0 0 0 0 0.5 0"/>
<feBlend mode="normal" in2="BackgroundImageFix" result="effect1_dropShadow_25_33"/>
<feBlend mode="normal" in="SourceGraphic" in2="effect1_dropShadow_25_33" result="shape"/>
</filter>
<filter id="filter1_d_25_33" x="24.8048" y="42.8877" width="26.8936" height="33.9423" filterUnits="userSpaceOnUse" color-interpolation-filters="sRGB">
<feFlood flood-opacity="0" result="BackgroundImageFix"/>
<feColorMatrix in="SourceAlpha" type="matrix" values="0 0 0 0 0 0 0 0 0 0 0 0 0 0 0 0 0 0 127 0" result="hardAlpha"/>
<feOffset dy="4"/>
<feGaussianBlur stdDeviation="4"/>
<feColorMatrix type="matrix" values="0 0 0 0 0 0 0 0 0 0 0 0 0 0 0 0 0 0 0.5 0"/>
<feBlend mode="normal" in="SourceGraphic" in2="effect1_dropShadow_25_33" result="shape"/>
</filter>
<filter id="filter2_d_25_33" x="62.6118" y="42.8877" width="27.5343" height="33.9423" filterUnits="userSpaceOnUse" color-interpolation-filters="sRGB">
<feFlood flood-opacity="0" result="BackgroundImageFix"/>
<feColorMatrix in="SourceAlpha" type="matrix" values="0 0 0 0 0 0 0 0 0 0 0 0 0 0 0 0 0 0 127 0" result="hardAlpha"/>
<feOffset dy="4"/>
<feGaussianBlur stdDeviation="4"/>
<feColorMatrix type="matrix" values="0 0 0 0 0 0 0 0 0 0 0 0 0 0 0 0 0 0 0.5 0"/>
<feBlend mode="normal" in="SourceGraphic" in2="effect1_dropShadow_25_33" result="shape"/>
</filter>
<filter id="filter3_d_25_33" x="41.4655" y="63.3156" width="31.6995" height="23.6896" filterUnits="userSpaceOnUse" color-interpolation-filters="sRGB">
<feFlood flood-opacity="0" result="BackgroundImageFix"/>
<feColorMatrix in="SourceAlpha" type="matrix" values="0 0 0 0 0 0 0 0 0 0 0 0 0 0 0 0 0 0 127 0" result="hardAlpha"/>
<feOffset dy="2"/>
<feGaussianBlur stdDeviation="4"/>
<feColorMatrix type="matrix" values="0 0 0 0 0 0 0 0 0 0 0 0 0 0 0 0 0 0 0.25 0"/>
<feBlend mode="normal" in2="BackgroundImageFix" result="effect1_dropShadow_25_33"/>
<feBlend mode="normal" in="SourceGraphic" in2="effect1_dropShadow_25_33" result="shape"/>
</filter>
<filter id="filter4_d_25_33" x="35.2712" y="0" width="44.146" height="38.3154" filterUnits="userSpaceOnUse" color-interpolation-filters="sRGB">
<feFlood flood-opacity="0" result="BackgroundImageFix"/>
<feColorMatrix in="SourceAlpha" type="matrix" values="0 0 0 0 0 0 0 0 0 0 0 0 0 0 0 0 0 0 127 0" result="hardAlpha"/>
<feOffset dy="4"/>
<feGaussianBlur stdDeviation="4"/>
<feColorMatrix type="matrix" values="0 0 0 0 0 0 0 0 0 0 0 0 0 0 0 0 0 0 0.5 0"/>
<feBlend mode="normal" in="SourceGraphic" in2="effect1_dropShadow_25_33" result="shape"/>
</filter>
</defs>
<g filter="url(#filter0_d_25_33)">
<path d="M16.7157 58.0361C17.4824 39.7756 34.0873 26.3113 52.1177 29.3011V29.3011C55.4073 29.8466 58.7682 29.845 62.0571 29.295V29.295C79.9464 26.3036 96.4274 39.6222 97.2572 57.7409L97.9613 73.1143C98.8484 92.4823 83.3853 108.67 63.9969 108.67H50.0473C30.71 108.67 15.266 92.5639 16.0772 73.2437L16.7157 58.0361Z" fill="#F4F4F4"/>
</g>
<path d="M30.4054 64.4414L29.4823 63.3229C27.7445 61.2172 27.5041 58.2513 28.8801 55.8932C29.7776 54.3551 31.2658 53.2514 32.9982 52.8391L33.6538 52.683C38.1832 51.6049 42.6539 54.6714 43.2792 59.2853L43.3496 59.8045C43.5064 60.9619 43.3272 62.14 42.8331 63.1984C42.3612 64.2093 41.6206 65.0712 40.6922 65.6899L40.3614 65.9104C37.157 68.046 32.8564 67.4115 30.4054 64.4414Z" fill="#DADADA"/>
<path d="M83.992 64.4501L84.9234 63.251C86.542 61.1671 86.7675 58.3208 85.4974 56.0081C84.6135 54.3987 83.1007 53.2291 81.3206 52.7789L81.0146 52.7015C76.7438 51.6215 72.4901 54.5198 71.9327 58.8897L71.8087 59.8616C71.6655 60.9842 71.8303 62.1247 72.2856 63.1609C72.7407 64.1968 73.4689 65.0894 74.3923 65.7433L74.5436 65.8504C77.5605 67.9866 81.7244 67.3695 83.992 64.4501Z" fill="#DADADA"/>
<g filter="url(#filter1_d_25_33)">
<rect x="32.8048" y="46.8877" width="10.8935" height="17.9423" rx="5.44677" fill="#161B22"/>
</g>
<g filter="url(#filter2_d_25_33)">
<rect x="70.6118" y="46.8877" width="11.5343" height="17.9423" rx="5.76717" fill="#161B22"/>
</g>
<path d="M57.2361 61.6261L65.1651 69.3156L57.1551 77.0052L49.4656 69.3156L57.2361 61.6261Z" fill="#E1D564"/>
<g filter="url(#filter3_d_25_33)">
<path d="M65.165 69.3156H49.4655L57.155 77.0051L65.165 69.3156Z" fill="#C6BA53"/>
</g>
<path d="M82.7869 78.9876C82.7869 75.944 85.2542 73.4767 88.2977 73.4767H98.794C105.84 73.4767 110.676 80.5682 108.104 87.1276L103.708 98.3372C103.071 99.9621 101.503 101.031 99.758 101.031V101.031C90.3851 101.031 82.7869 93.4328 82.7869 84.0599V78.9876Z" fill="#161B22"/>
<path d="M5.87982 87.3734C3.09009 80.78 7.93009 73.4767 15.0894 73.4767H26.0123C29.0559 73.4767 31.5232 75.944 31.5232 78.9876V83.9897C31.5232 93.4014 23.8935 101.031 14.4819 101.031V101.031C12.7705 101.031 11.2252 100.007 10.5583 98.4308L5.87982 87.3734Z" fill="#161B22"/>
<g filter="url(#filter4_d_25_33)">
<path fill-rule="evenodd" clip-rule="evenodd" d="M50.8055 13.5082C51.0766 13.2605 51.3799 13.0272 51.7465 13.0048C51.857 12.998 51.9741 12.998 52.0945 13.0072C52.4617 13.0352 52.7202 13.1365 52.8757 13.2381C52.8803 13.2411 52.8849 13.2442 52.8895 13.2473C53.159 13.4296 53.2075 13.7902 53.2075 14.1155V21.8154C53.2075 24.3006 55.2223 26.3154 57.7075 26.3154C60.1928 26.3154 62.2075 24.3006 62.2075 21.8154L62.2075 13.6496C62.2075 13.5495 62.2762 13.4617 62.3751 13.4461V13.4461C63.0644 13.3377 64.0134 13.4886 64.7829 13.903C66.9711 15.0812 69.7002 14.2625 70.8785 12.0743C72.0567 9.88609 71.238 7.15701 69.0498 5.97873C66.6689 4.69672 63.7405 4.12065 60.9765 4.55544C60.2378 4.67164 59.4838 4.86794 58.7464 5.1553C58.0788 5.41544 57.3259 5.38657 56.6806 5.07521C55.4039 4.45918 54.0545 4.13053 52.7789 4.03324C51.1576 3.90959 49.534 4.13408 48.0968 4.65377C46.7404 5.14427 45.1093 6.06441 44.0275 7.68706C42.6489 9.75494 43.2077 12.5489 45.2756 13.9274C47.0326 15.0988 49.3137 14.8715 50.8055 13.5082Z" fill="#61D596"/>
</g>
</svg>
